<?xml version="1.0" encoding="UTF-8"?>
<!DOCTYPE svg PUBLIC "-//W3C//DTD SVG 1.1//EN" "http://www.w3.org/Graphics/SVG/1.1/DTD/svg11.dtd">
<!-- Creator: CorelDRAW -->
<svg xmlns="http://www.w3.org/2000/svg" xml:space="preserve" width="1.70666in" height="1.70666in" version="1.1" style="shape-rendering:geometricPrecision; text-rendering:geometricPrecision; image-rendering:optimizeQuality; fill-rule:evenodd; clip-rule:evenodd"
viewBox="0 0 1707 1707"
 xmlns:xlink="http://www.w3.org/1999/xlink">
 <defs>
  <style type="text/css">
   <![CDATA[
    .fil0 {fill:#006EA7}
    .fil1 {fill:#59AAE7}
   ]]>
  </style>
 </defs>
 <g id="Layer_x0020_1">
  <metadata id="CorelCorpID_0Corel-Layer"/>
  <path class="fil0" d="M1082 1507c-52,0 -102,-20 -139,-57l-203 -203 -334 77c-4,2 -8,2 -12,2l-1 0 0 0 0 0c-18,-1 -29,-18 -24,-33l51 -367 -163 -163c-106,-106 -58,-289 87,-327l918 -231c145,-36 277,96 239,240l-231 917c-8,33 -25,63 -50,87l0 0c-35,37 -86,58 -138,58zm-386 -305l-6 -5 -78 -78 -133 134 217 -51zm-265 24l144 -144 -109 -109 -35 253zm181 -182l551 -550 -673 428 122 122zm-161 -161l886 -562c26,-17 55,18 33,41l-720 720 330 330c81,81 213,38 239,-63l231 -917c28,-108 -71,-201 -175,-175l-917 230c-106,29 -142,161 -64,239l157 157zm1071 741l-1337 0c-102,0 -185,-83 -185,-184l0 -1173c0,-102 83,-185 185,-185l1337 0c102,0 184,83 184,185l0 1173c1,101 -82,184 -184,184zm-1337 -1489c-73,0 -132,59 -132,132l0 1173c0,72 60,131 132,131l1337 0c72,0 131,-59 131,-131l0 -1173c0,-73 -59,-132 -131,-132l-1337 0z"/>
  <polygon class="fil1" points="612,1044 1163,494 490,922 "/>
  <path class="fil1" d="M1370 362l-720 720 330 330c81,81 213,38 239,-63l231 -917c28,-108 -71,-201 -175,-175l-917 230c-106,29 -142,161 -64,239l157 157 886 -562c26,-17 55,18 33,41z"/>
  <polygon class="fil1" points="575,1082 466,973 431,1226 "/>
  <polygon class="fil1" points="612,1119 479,1253 696,1202 690,1197 "/>
  <path class="fil1" d="M740 1247l-334 77c-4,2 -8,2 -12,2l-1 0 0 0 0 0c-18,-1 -29,-18 -24,-33l51 -367 -163 -163c-106,-106 -58,-289 87,-327l918 -231c145,-36 277,96 239,240l-231 917c-8,33 -25,63 -50,87 -35,37 -86,58 -138,58 -52,0 -102,-20 -139,-57l-203 -203zm-555 324l1337 0c72,0 131,-59 131,-131l0 -1173c0,-73 -59,-132 -131,-132l-1337 0c-73,0 -132,59 -132,132l0 1173c0,72 60,131 132,131z"/>
 </g>
</svg>
